<svg version="1.0" xmlns="http://www.w3.org/2000/svg" width="853.333" height="1706.667" viewBox="0 0 640 1280">
    <path stroke='lightgray' fill='gray' d="M528 1.9c-17.6 3.8-31.6 11.7-44.2 24.9-30 31.4-31.9 78.7-4.5 113.1C488 150.8 504 162 518 166.8l3 1.1v425.3c0 278.1-.3 428.3-1 433.8-3.6 30.3-12.3 57.7-26.1 82.3-42 74.6-124.7 121.6-213.9 121.7-87.7.1-165.2-50.5-202.4-132-8-17.6-15.3-42.8-17.5-61-.7-5.2-1.3-10.5-1.5-11.8-.4-2.8-1.1-2.8 21.5.3 24.2 3.2 43.9 5.3 43.9 4.6 0-.7-108.8-129.3-112.6-133.1l-2.5-2.5.4 69.5c.4 75.2.3 74.7 6.3 102 11.4 51.8 38.6 99.9 77.8 137.8 52.5 50.7 122 77.3 195.1 74.9 45.9-1.6 84.5-11.2 126-31.7 56.3-27.7 101.5-72.4 128-126.5 13-26.5 19.7-47.8 25.2-79.5 1.7-10 1.8-32.6 2.3-442.3l.5-431.8 7.3-3c26-10.4 45.9-34.2 51.7-61.9 2-9.3 1.9-25.1-.1-34.8C623 37 599.4 12 567.9 3 557.1-.1 539.2-.6 528 1.9zm33.5 36.3c23.1 7.5 37.8 32 33.6 55.7-6 33.3-41.6 51.5-71.6 36.7-19.2-9.5-30.6-30.8-27.6-51.4 2.5-16.8 12.7-30.9 27.6-38.3 12.5-6.2 24.8-7 38-2.7z"/>
</svg>
